<svg xmlns="http://www.w3.org/2000/svg" viewBox="0 0 82.21 82.21"><defs><style>.cls-1{fill:#fff;}</style></defs><title>Door43 Logo</title><g id="Layer_2" data-name="Layer 2"><g id="Online_Project" data-name="Online Project"><polygon class="cls-1" points="27.3 67.13 36.49 67.13 36.49 52.45 35.95 53.4 27.3 67.13"/><path class="cls-1" d="M66.3,0H15.91A15.91,15.91,0,0,0,0,15.91V66.3A15.91,15.91,0,0,0,15.91,82.21H36.49V73.78h-17l-.37-5.2L36.41,41.2h8.34V67.13h4.71v6.65H44.75v8.43H60.52a13.33,13.33,0,0,1-3.68-2.15,10.73,10.73,0,0,1-4-8.68h8.25a4.78,4.78,0,0,0,1.76,3.83,7.32,7.32,0,0,0,8.94-.07A5.37,5.37,0,0,0,73.5,71q0-6.22-6.85-6.22H62.28V58.33h4.4a6.2,6.2,0,0,0,4.66-1.57,5.76,5.76,0,0,0,1.51-4.17,5.09,5.09,0,0,0-1.5-3.91,5.81,5.81,0,0,0-4.13-1.4,6.09,6.09,0,0,0-4,1.3A4.15,4.15,0,0,0,61.65,52H53.4a10.15,10.15,0,0,1,1.76-5.84,11.7,11.7,0,0,1,4.91-4,16.38,16.38,0,0,1,7-1.46q6.6,0,10.34,3.16a10.77,10.77,0,0,1,3.74,8.69,8.74,8.74,0,0,1-1.74,5.25,11.31,11.31,0,0,1-4.57,3.68A10.34,10.34,0,0,1,80,65.19a10,10,0,0,1,1.67,5.07,15.88,15.88,0,0,0,.52-4V15.91A15.91,15.91,0,0,0,66.3,0Z"/></g></g></svg>